<svg xmlns="http://www.w3.org/2000/svg" xmlns:xlink="http://www.w3.org/1999/xlink" width="480" zoomAndPan="magnify" viewBox="0 0 360 239.999995" height="320" preserveAspectRatio="xMidYMid meet" version="1.0"><defs><filter x="0%" y="0%" width="100%" height="100%" id="8e3945c493"><feColorMatrix values="0 0 0 0 1 0 0 0 0 1 0 0 0 0 1 0 0 0 1 0" color-interpolation-filters="sRGB"/></filter><clipPath id="b789d82287"><path d="M 6.117188 -7.773438 L 363.046875 -7.773438 C 375.472656 -7.773438 385.546875 2.300781 385.546875 14.726562 L 385.546875 224.933594 C 385.546875 237.359375 375.472656 247.433594 363.046875 247.433594 L 6.117188 247.433594 C -6.308594 247.433594 -16.382812 237.359375 -16.382812 224.933594 L -16.382812 14.726562 C -16.382812 2.300781 -6.308594 -7.773438 6.117188 -7.773438 " clip-rule="nonzero"/></clipPath><mask id="cbed4ae2ba"><g filter="url(#8e3945c493)"><rect x="-36" width="432" fill="#000000" y="-23.999999" height="287.999994" fill-opacity="0.5765"/></g></mask><clipPath id="9c155c92e1"><path d="M 1.085938 0.121094 L 60.238281 0.121094 L 60.238281 75.566406 L 1.085938 75.566406 Z M 1.085938 0.121094 " clip-rule="nonzero"/></clipPath><clipPath id="5332e50123"><path d="M 1.085938 0.121094 L 22 0.121094 L 22 21 L 1.085938 21 Z M 1.085938 0.121094 " clip-rule="nonzero"/></clipPath><clipPath id="b2d1cb7861"><rect x="0" width="61" y="0" height="76"/></clipPath><mask id="2fec4ebd82"><g filter="url(#8e3945c493)"><rect x="-36" width="432" fill="#000000" y="-23.999999" height="287.999994" fill-opacity="0.5765"/></g></mask><clipPath id="129eb4e3d3"><path d="M 0.320312 1 L 59.3125 1 L 59.3125 77.269531 L 0.320312 77.269531 Z M 0.320312 1 " clip-rule="nonzero"/></clipPath><clipPath id="c71cec5f84"><path d="M 39 1 L 59.3125 1 L 59.3125 23 L 39 23 Z M 39 1 " clip-rule="nonzero"/></clipPath><clipPath id="497d38c97e"><rect x="0" width="60" y="0" height="78"/></clipPath><mask id="de5a35b215"><g filter="url(#8e3945c493)"><rect x="-36" width="432" fill="#000000" y="-23.999999" height="287.999994" fill-opacity="0.5765"/></g></mask><clipPath id="85f544f478"><path d="M 3 0 L 50.226562 0 L 50.226562 53.988281 L 3 53.988281 Z M 3 0 " clip-rule="nonzero"/></clipPath><clipPath id="3d66fafae5"><rect x="0" width="51" y="0" height="54"/></clipPath><mask id="991a2268b7"><g filter="url(#8e3945c493)"><rect x="-36" width="432" fill="#000000" y="-23.999999" height="287.999994" fill-opacity="0.5765"/></g></mask><clipPath id="d3925d0c72"><path d="M 3 0.617188 L 46.359375 0.617188 L 46.359375 50.117188 L 3 50.117188 Z M 3 0.617188 " clip-rule="nonzero"/></clipPath><clipPath id="64acbfa0eb"><path d="M 0.761719 5 L 9 5 L 9 48 L 0.761719 48 Z M 0.761719 5 " clip-rule="nonzero"/></clipPath><clipPath id="f71c989489"><rect x="0" width="47" y="0" height="51"/></clipPath><mask id="40ee9a92a0"><g filter="url(#8e3945c493)"><rect x="-36" width="432" fill="#000000" y="-23.999999" height="287.999994" fill-opacity="0.5765"/></g></mask><clipPath id="cd5db812b2"><path d="M 1 0.320312 L 46.601562 0.320312 L 46.601562 50.480469 L 1 50.480469 Z M 1 0.320312 " clip-rule="nonzero"/></clipPath><clipPath id="e8228e5105"><rect x="0" width="47" y="0" height="51"/></clipPath><mask id="7a1d365405"><g filter="url(#8e3945c493)"><rect x="-36" width="432" fill="#000000" y="-23.999999" height="287.999994" fill-opacity="0.5765"/></g></mask><clipPath id="19f18ccc7f"><path d="M 0.320312 0.488281 L 49.761719 0.488281 L 49.761719 55.160156 L 0.320312 55.160156 Z M 0.320312 0.488281 " clip-rule="nonzero"/></clipPath><clipPath id="43d5c63594"><rect x="0" width="50" y="0" height="56"/></clipPath></defs><g clip-path="url(#b789d82287)"><rect x="-36" width="432" fill="#ffbec9" y="-23.999999" height="287.999994" fill-opacity="1"/></g><g mask="url(#cbed4ae2ba)"><g transform="matrix(1, 0, 0, 1, 30, 135)"><g clip-path="url(#b2d1cb7861)"><g clip-path="url(#9c155c92e1)"><path fill="#fff7ff" d="M 58.375 75.566406 C 58.171875 75.566406 57.96875 75.53125 57.769531 75.464844 L 57.765625 75.464844 C 56.507812 75.042969 55.257812 74.566406 54.046875 74.050781 C 50.171875 72.386719 46.441406 70.207031 42.644531 67.371094 C 39.179688 64.785156 18.730469 35.96875 8.207031 19.925781 C 1.085938 9.0625 1.121094 8.117188 1.136719 7.660156 C 1.226562 5.089844 3.507812 2.253906 6.5625 0.914062 C 9.070312 -0.183594 11.472656 0.0078125 13.167969 1.445312 C 13.339844 1.585938 13.738281 1.921875 20.46875 10.953125 C 30.125 23.894531 47.003906 46.941406 52.554688 54.695312 C 55.285156 58.5 57.0625 61.238281 58.714844 67.085938 C 59.222656 68.871094 59.707031 70.917969 60.199219 73.339844 C 60.332031 73.992188 60.113281 74.652344 59.609375 75.09375 C 59.257812 75.402344 58.820312 75.566406 58.375 75.566406 Z M 58.269531 73.980469 C 58.414062 74.027344 58.515625 73.964844 58.566406 73.921875 C 58.613281 73.882812 58.6875 73.792969 58.65625 73.652344 C 58.167969 71.265625 57.695312 69.257812 57.199219 67.511719 C 55.617188 61.902344 53.90625 59.269531 51.273438 55.601562 C 45.722656 47.851562 28.855469 24.824219 19.207031 11.886719 C 13.347656 4.027344 12.3125 2.789062 12.136719 2.625 C 10.425781 1.171875 8.113281 1.945312 7.199219 2.347656 C 4.722656 3.433594 2.800781 5.722656 2.710938 7.683594 C 2.773438 8.03125 3.476562 9.84375 9.523438 19.070312 C 20.746094 36.179688 40.617188 63.902344 43.589844 66.117188 C 47.285156 68.878906 50.910156 71 54.671875 72.609375 C 55.839844 73.109375 57.054688 73.574219 58.269531 73.980469 Z M 58.269531 73.980469 " fill-opacity="1" fill-rule="nonzero"/></g><path fill="#fff7ff" d="M 58.019531 74.726562 C 56.753906 74.300781 55.113281 73.59375 53.941406 73.089844 C 54.34375 70.914062 56.117188 69.757812 58.359375 68.78125 C 58.851562 70.527344 58.9375 71.070312 59.429688 73.496094 C 59.59375 74.308594 58.808594 74.988281 58.019531 74.726562 Z M 58.019531 74.726562 " fill-opacity="1" fill-rule="nonzero"/><path fill="#fff7ff" d="M 7.269531 17.820312 C 7.105469 17.820312 6.945312 17.769531 6.804688 17.667969 C 6.453125 17.414062 6.378906 16.925781 6.632812 16.574219 C 8.964844 13.394531 12.113281 10.875 15.730469 9.285156 C 16.320312 9.027344 16.929688 8.84375 17.460938 8.679688 C 17.640625 8.625 17.816406 8.574219 17.988281 8.519531 C 18.398438 8.386719 18.84375 8.613281 18.976562 9.027344 C 19.109375 9.4375 18.882812 9.878906 18.46875 10.011719 C 18.292969 10.066406 18.109375 10.125 17.917969 10.183594 C 17.398438 10.339844 16.867188 10.5 16.363281 10.722656 C 13 12.199219 10.070312 14.542969 7.902344 17.5 C 7.75 17.707031 7.511719 17.820312 7.269531 17.820312 Z M 7.269531 17.820312 " fill-opacity="1" fill-rule="nonzero"/><g clip-path="url(#5332e50123)"><path fill="#fff7ff" d="M 8.84375 20.894531 L 8.207031 19.921875 C 1.085938 9.0625 1.121094 8.117188 1.136719 7.660156 C 1.226562 5.089844 3.507812 2.253906 6.5625 0.914062 C 9.070312 -0.183594 11.472656 0.0078125 13.167969 1.445312 C 13.339844 1.585938 13.738281 1.921875 20.46875 10.953125 L 21.132812 11.839844 L 19.761719 12.261719 C 19.253906 12.417969 18.730469 12.578125 18.238281 12.789062 C 14.773438 14.3125 11.671875 16.855469 9.511719 19.941406 Z M 2.710938 7.683594 C 2.773438 8.019531 3.429688 9.71875 8.902344 18.121094 C 11.1875 15.191406 14.175781 12.867188 17.597656 11.359375 C 17.914062 11.222656 18.230469 11.109375 18.546875 11.003906 C 13.269531 3.933594 12.304688 2.785156 12.136719 2.628906 C 10.425781 1.175781 8.113281 1.949219 7.199219 2.347656 C 4.722656 3.433594 2.800781 5.722656 2.710938 7.683594 Z M 2.710938 7.683594 " fill-opacity="1" fill-rule="nonzero"/></g><path fill="#fff7ff" d="M 42.722656 67.179688 C 42.710938 67.179688 42.695312 67.179688 42.679688 67.179688 C 42.246094 67.15625 41.914062 66.789062 41.9375 66.359375 C 41.988281 65.363281 42.226562 64.035156 43.085938 63.335938 C 43.515625 62.984375 44.046875 62.84375 44.617188 62.929688 C 44.707031 62.941406 44.8125 62.957031 44.929688 62.976562 C 45.28125 63.035156 46.34375 63.207031 46.628906 63.097656 C 46.664062 63.078125 46.753906 62.8125 46.679688 62.335938 L 46.660156 62.226562 C 46.558594 61.601562 46.417969 60.746094 46.945312 60.042969 C 47.46875 59.351562 48.410156 59.105469 49.527344 59.367188 C 49.667969 59.402344 49.816406 59.441406 49.964844 59.484375 C 50.371094 59.59375 50.753906 59.699219 51.054688 59.632812 C 51.234375 59.589844 51.46875 58.839844 51.570312 58.519531 C 51.660156 58.234375 51.753906 57.9375 51.871094 57.675781 C 52.113281 57.132812 52.554688 56.742188 53.140625 56.539062 C 53.550781 56.394531 54 56.613281 54.140625 57.023438 C 54.28125 57.429688 54.0625 57.878906 53.652344 58.015625 C 53.429688 58.09375 53.351562 58.210938 53.304688 58.3125 C 53.222656 58.488281 53.148438 58.730469 53.070312 58.984375 C 52.816406 59.804688 52.464844 60.929688 51.390625 61.164062 C 50.714844 61.3125 50.097656 61.140625 49.550781 60.992188 C 49.425781 60.957031 49.292969 60.921875 49.167969 60.894531 C 48.726562 60.789062 48.320312 60.824219 48.207031 60.980469 C 48.078125 61.152344 48.152344 61.609375 48.214844 61.976562 L 48.230469 62.09375 C 48.410156 63.222656 48.09375 64.089844 47.363281 64.480469 C 46.742188 64.816406 45.777344 64.699219 44.675781 64.523438 C 44.570312 64.503906 44.472656 64.488281 44.390625 64.476562 C 44.234375 64.453125 44.152344 64.492188 44.082031 64.550781 C 43.78125 64.796875 43.554688 65.539062 43.507812 66.441406 C 43.484375 66.855469 43.136719 67.179688 42.722656 67.179688 Z M 42.722656 67.179688 " fill-opacity="1" fill-rule="nonzero"/><path fill="#fff7ff" d="M 42.648438 61.707031 C 42.53125 61.707031 42.421875 61.65625 42.34375 61.5625 L 37.445312 55.425781 C 36.390625 54.101562 35.296875 52.734375 34.257812 51.355469 C 32.910156 49.5625 31.613281 47.691406 30.359375 45.886719 L 11.820312 19.179688 C 11.699219 19.003906 11.742188 18.765625 11.917969 18.644531 C 12.09375 18.523438 12.335938 18.566406 12.457031 18.742188 L 30.992188 45.445312 C 32.246094 47.25 33.539062 49.109375 34.878906 50.890625 C 35.910156 52.265625 36.996094 53.625 38.054688 54.949219 L 42.953125 61.082031 C 43.085938 61.25 43.058594 61.492188 42.890625 61.625 C 42.816406 61.679688 42.730469 61.707031 42.648438 61.707031 Z M 42.648438 61.707031 " fill-opacity="1" fill-rule="nonzero"/><path fill="#fff7ff" d="M 46.617188 59.332031 C 46.507812 59.332031 46.398438 59.285156 46.320312 59.195312 C 45.402344 58.125 44.480469 56.960938 43.582031 55.832031 C 42.292969 54.214844 41.078125 52.6875 40.125 51.730469 C 38.050781 49.648438 22.148438 26.828125 15.992188 17.753906 C 15.871094 17.574219 15.917969 17.335938 16.097656 17.214844 C 16.277344 17.09375 16.519531 17.140625 16.640625 17.320312 C 23.722656 27.765625 38.75 49.25 40.683594 51.183594 C 41.667969 52.167969 42.894531 53.714844 44.195312 55.351562 C 45.085938 56.472656 46.011719 57.632812 46.917969 58.691406 C 47.058594 58.855469 47.035156 59.101562 46.875 59.238281 C 46.792969 59.300781 46.703125 59.332031 46.617188 59.332031 Z M 46.617188 59.332031 " fill-opacity="1" fill-rule="nonzero"/><path fill="#fff7ff" d="M 50.292969 56.71875 C 50.179688 56.71875 50.0625 56.664062 49.984375 56.570312 C 46.296875 51.839844 42.730469 47.101562 39.285156 42.519531 C 35.84375 37.941406 32.28125 33.203125 28.59375 28.480469 C 26.992188 26.425781 25.347656 24.105469 23.753906 21.859375 C 22.144531 19.59375 20.480469 17.242188 18.910156 15.25 C 18.777344 15.082031 18.808594 14.839844 18.976562 14.707031 C 19.148438 14.574219 19.390625 14.605469 19.523438 14.773438 C 21.105469 16.78125 22.773438 19.136719 24.390625 21.414062 C 25.976562 23.652344 27.617188 25.964844 29.210938 28 C 32.898438 32.730469 36.464844 37.46875 39.90625 42.050781 C 43.347656 46.628906 46.910156 51.367188 50.597656 56.09375 C 50.730469 56.261719 50.699219 56.503906 50.527344 56.636719 C 50.457031 56.6875 50.375 56.71875 50.292969 56.71875 Z M 50.292969 56.71875 " fill-opacity="1" fill-rule="nonzero"/></g></g></g><g mask="url(#2fec4ebd82)"><g transform="matrix(1, 0, 0, 1, 250, 25)"><g clip-path="url(#497d38c97e)"><g clip-path="url(#129eb4e3d3)"><path fill="#fff7ff" d="M 2.234375 77.269531 C 2.4375 77.269531 2.640625 77.238281 2.839844 77.171875 L 2.84375 77.171875 C 4.101562 76.742188 5.351562 76.261719 6.5625 75.738281 C 10.4375 74.0625 14.167969 71.859375 17.964844 68.996094 C 21.429688 66.386719 41.882812 37.285156 52.40625 21.082031 C 59.523438 10.113281 59.488281 9.15625 59.472656 8.691406 C 59.382812 6.097656 57.101562 3.234375 54.046875 1.878906 C 51.542969 0.769531 49.136719 0.96875 47.441406 2.417969 C 47.269531 2.558594 46.875 2.898438 40.140625 12.019531 C 30.484375 25.089844 13.605469 48.363281 8.054688 56.195312 C 5.324219 60.039062 3.546875 62.800781 1.894531 68.710938 C 1.386719 70.511719 0.902344 72.578125 0.410156 75.023438 C 0.277344 75.683594 0.496094 76.347656 1 76.792969 C 1.351562 77.109375 1.789062 77.269531 2.234375 77.269531 Z M 2.335938 75.671875 C 2.195312 75.71875 2.09375 75.65625 2.042969 75.613281 C 1.996094 75.570312 1.921875 75.480469 1.953125 75.335938 C 2.441406 72.929688 2.914062 70.902344 3.410156 69.136719 C 4.992188 63.472656 6.703125 60.816406 9.335938 57.109375 C 14.886719 49.285156 31.753906 26.027344 41.402344 12.960938 C 47.261719 5.023438 48.296875 3.777344 48.472656 3.609375 C 50.1875 2.144531 52.5 2.921875 53.410156 3.328125 C 55.890625 4.425781 57.8125 6.734375 57.902344 8.71875 C 57.839844 9.066406 57.132812 10.902344 51.085938 20.21875 C 39.863281 37.496094 19.992188 65.492188 17.023438 67.730469 C 13.324219 70.515625 9.699219 72.664062 5.9375 74.285156 C 4.769531 74.792969 3.554688 75.257812 2.335938 75.671875 Z M 2.335938 75.671875 " fill-opacity="1" fill-rule="nonzero"/></g><path fill="#fff7ff" d="M 2.589844 76.421875 C 3.855469 75.992188 5.496094 75.277344 6.667969 74.769531 C 6.265625 72.574219 4.492188 71.40625 2.25 70.421875 C 1.757812 72.183594 1.671875 72.730469 1.179688 75.183594 C 1.015625 76 1.800781 76.6875 2.589844 76.421875 Z M 2.589844 76.421875 " fill-opacity="1" fill-rule="nonzero"/><path fill="#fff7ff" d="M 53.34375 18.953125 C 53.503906 18.953125 53.667969 18.902344 53.804688 18.800781 C 54.15625 18.546875 54.234375 18.050781 53.976562 17.699219 C 51.644531 14.484375 48.496094 11.941406 44.878906 10.335938 C 44.289062 10.074219 43.683594 9.890625 43.148438 9.726562 C 42.96875 9.667969 42.792969 9.617188 42.625 9.5625 C 42.210938 9.429688 41.765625 9.65625 41.632812 10.074219 C 41.5 10.488281 41.726562 10.933594 42.140625 11.070312 C 42.320312 11.125 42.503906 11.179688 42.691406 11.242188 C 43.210938 11.398438 43.746094 11.5625 44.246094 11.785156 C 47.613281 13.28125 50.539062 15.644531 52.707031 18.632812 C 52.863281 18.84375 53.101562 18.953125 53.34375 18.953125 Z M 53.34375 18.953125 " fill-opacity="1" fill-rule="nonzero"/><g clip-path="url(#c71cec5f84)"><path fill="#fff7ff" d="M 51.765625 22.058594 L 52.402344 21.078125 C 59.523438 10.113281 59.488281 9.15625 59.472656 8.691406 C 59.382812 6.097656 57.101562 3.234375 54.046875 1.878906 C 51.542969 0.769531 49.136719 0.96875 47.441406 2.417969 C 47.269531 2.558594 46.875 2.898438 40.140625 12.019531 L 39.480469 12.914062 L 40.847656 13.34375 C 41.355469 13.496094 41.882812 13.660156 42.371094 13.875 C 45.835938 15.414062 48.9375 17.976562 51.097656 21.097656 Z M 57.902344 8.71875 C 57.839844 9.054688 57.183594 10.773438 51.707031 19.257812 C 49.421875 16.300781 46.4375 13.953125 43.011719 12.429688 C 42.699219 12.292969 42.378906 12.175781 42.066406 12.070312 C 47.34375 4.929688 48.304688 3.769531 48.472656 3.609375 C 50.1875 2.144531 52.5 2.925781 53.410156 3.332031 C 55.890625 4.425781 57.8125 6.734375 57.902344 8.71875 Z M 57.902344 8.71875 " fill-opacity="1" fill-rule="nonzero"/></g><path fill="#fff7ff" d="M 17.886719 68.800781 C 17.898438 68.800781 17.914062 68.800781 17.929688 68.800781 C 18.363281 68.78125 18.695312 68.410156 18.671875 67.972656 C 18.621094 66.96875 18.382812 65.625 17.523438 64.921875 C 17.09375 64.566406 16.5625 64.425781 15.992188 64.507812 C 15.902344 64.523438 15.796875 64.539062 15.679688 64.558594 C 15.328125 64.617188 14.265625 64.789062 13.980469 64.679688 C 13.945312 64.660156 13.855469 64.390625 13.929688 63.910156 L 13.949219 63.800781 C 14.050781 63.167969 14.195312 62.304688 13.664062 61.59375 C 13.140625 60.894531 12.199219 60.648438 11.082031 60.914062 C 10.941406 60.949219 10.789062 60.988281 10.644531 61.03125 C 10.238281 61.140625 9.851562 61.246094 9.554688 61.179688 C 9.375 61.140625 9.140625 60.382812 9.039062 60.058594 C 8.949219 59.765625 8.855469 59.46875 8.738281 59.203125 C 8.496094 58.65625 8.054688 58.261719 7.46875 58.054688 C 7.058594 57.910156 6.609375 58.132812 6.46875 58.542969 C 6.328125 58.957031 6.546875 59.410156 6.957031 59.546875 C 7.179688 59.625 7.257812 59.746094 7.304688 59.847656 C 7.386719 60.027344 7.460938 60.269531 7.539062 60.523438 C 7.792969 61.355469 8.144531 62.492188 9.21875 62.726562 C 9.894531 62.875 10.511719 62.703125 11.058594 62.554688 C 11.183594 62.519531 11.316406 62.484375 11.441406 62.453125 C 11.882812 62.347656 12.289062 62.386719 12.402344 62.542969 C 12.53125 62.714844 12.457031 63.179688 12.394531 63.550781 L 12.378906 63.664062 C 12.199219 64.804688 12.515625 65.679688 13.246094 66.078125 C 13.867188 66.417969 14.832031 66.296875 15.933594 66.117188 C 16.039062 66.097656 16.136719 66.082031 16.21875 66.074219 C 16.375 66.050781 16.457031 66.085938 16.527344 66.144531 C 16.828125 66.394531 17.054688 67.144531 17.101562 68.058594 C 17.125 68.476562 17.472656 68.800781 17.886719 68.800781 Z M 17.886719 68.800781 " fill-opacity="1" fill-rule="nonzero"/><path fill="#fff7ff" d="M 17.960938 63.273438 C 18.078125 63.273438 18.1875 63.226562 18.265625 63.128906 L 23.164062 56.933594 C 24.21875 55.59375 25.3125 54.214844 26.351562 52.820312 C 27.699219 51.011719 29 49.121094 30.253906 47.296875 L 48.792969 20.328125 C 48.914062 20.152344 48.871094 19.910156 48.691406 19.785156 C 48.515625 19.664062 48.273438 19.707031 48.152344 19.886719 L 29.617188 46.851562 C 28.363281 48.671875 27.070312 50.554688 25.734375 52.351562 C 24.699219 53.738281 23.613281 55.113281 22.558594 56.449219 L 17.65625 62.644531 C 17.523438 62.8125 17.550781 63.058594 17.71875 63.195312 C 17.792969 63.246094 17.878906 63.273438 17.960938 63.273438 Z M 17.960938 63.273438 " fill-opacity="1" fill-rule="nonzero"/><path fill="#fff7ff" d="M 13.992188 60.878906 C 14.101562 60.878906 14.210938 60.832031 14.289062 60.738281 C 15.207031 59.65625 16.128906 58.484375 17.027344 57.34375 C 18.316406 55.710938 19.53125 54.167969 20.484375 53.199219 C 22.558594 51.097656 38.460938 28.050781 44.617188 18.886719 C 44.738281 18.707031 44.691406 18.464844 44.511719 18.34375 C 44.335938 18.222656 44.09375 18.269531 43.972656 18.449219 C 36.886719 29 21.859375 50.695312 19.925781 52.648438 C 18.941406 53.644531 17.714844 55.207031 16.414062 56.859375 C 15.523438 57.988281 14.597656 59.164062 13.691406 60.230469 C 13.550781 60.398438 13.574219 60.644531 13.734375 60.785156 C 13.816406 60.847656 13.90625 60.878906 13.992188 60.878906 Z M 13.992188 60.878906 " fill-opacity="1" fill-rule="nonzero"/><path fill="#fff7ff" d="M 10.316406 58.234375 C 10.429688 58.234375 10.546875 58.183594 10.625 58.085938 C 14.316406 53.308594 17.878906 48.523438 21.324219 43.898438 C 24.765625 39.273438 28.328125 34.492188 32.015625 29.71875 C 33.617188 27.648438 35.261719 25.300781 36.855469 23.035156 C 38.46875 20.742188 40.132812 18.371094 41.699219 16.359375 C 41.832031 16.1875 41.800781 15.945312 41.632812 15.8125 C 41.460938 15.675781 41.21875 15.707031 41.085938 15.875 C 39.507812 17.902344 37.835938 20.28125 36.21875 22.582031 C 34.632812 24.84375 32.992188 27.179688 31.402344 29.238281 C 27.710938 34.011719 24.144531 38.800781 20.703125 43.425781 C 17.261719 48.050781 13.699219 52.832031 10.011719 57.605469 C 9.878906 57.777344 9.910156 58.019531 10.078125 58.15625 C 10.152344 58.207031 10.234375 58.234375 10.316406 58.234375 Z M 10.316406 58.234375 " fill-opacity="1" fill-rule="nonzero"/></g></g></g><g mask="url(#de5a35b215)"><g transform="matrix(1, 0, 0, 1, 244, 126)"><g clip-path="url(#3d66fafae5)"><g clip-path="url(#85f544f478)"><path fill="#fff7ff" d="M 17.53125 53.988281 C 14.425781 53.988281 11.257812 53.941406 8.015625 53.878906 C 6.839844 53.855469 5.871094 52.917969 5.816406 51.746094 L 3.996094 14.230469 C 3.941406 13.121094 3.886719 12.011719 3.832031 10.902344 C 3.722656 8.722656 3.609375 6.464844 3.511719 4.246094 C 3.449219 2.785156 3.605469 2.035156 4.082031 1.570312 C 4.617188 1.046875 5.367188 1.089844 6.3125 1.148438 C 6.773438 1.175781 7.296875 1.210938 7.898438 1.1875 C 10.929688 1.078125 14.011719 0.886719 16.992188 0.703125 C 20.378906 0.492188 23.882812 0.277344 27.339844 0.183594 C 34.359375 -0.0078125 41.480469 -0.0117188 48.496094 0.167969 C 49.328125 0.1875 49.992188 0.859375 50.003906 1.6875 C 50.226562 17.296875 50.042969 33.117188 49.457031 48.71875 C 49.414062 49.820312 48.640625 50.777344 47.566406 51.042969 C 37.96875 53.433594 28.113281 53.988281 17.53125 53.988281 Z M 5.507812 2.273438 C 5.214844 2.273438 4.992188 2.300781 4.898438 2.394531 C 4.765625 2.523438 4.621094 2.941406 4.675781 4.191406 C 4.773438 6.410156 4.886719 8.664062 4.992188 10.84375 C 5.050781 11.953125 5.105469 13.0625 5.160156 14.171875 L 6.976562 51.6875 C 7.003906 52.253906 7.46875 52.703125 8.035156 52.714844 C 22.246094 52.992188 35.003906 52.972656 47.285156 49.914062 C 47.855469 49.773438 48.265625 49.265625 48.289062 48.675781 C 48.875 33.097656 49.058594 17.292969 48.835938 1.703125 C 48.835938 1.5 48.671875 1.332031 48.464844 1.328125 C 41.464844 1.148438 34.371094 1.15625 27.367188 1.34375 C 23.929688 1.4375 20.4375 1.65625 17.0625 1.863281 C 14.074219 2.050781 10.980469 2.238281 7.9375 2.34375 C 7.28125 2.367188 6.707031 2.335938 6.242188 2.304688 C 5.976562 2.289062 5.726562 2.273438 5.507812 2.273438 Z M 5.507812 2.273438 " fill-opacity="1" fill-rule="nonzero"/></g><path fill="#fff7ff" d="M 14.609375 25.109375 C 13.550781 25.109375 12.378906 25.027344 11.582031 24.335938 C 11.386719 24.167969 10.980469 23.8125 10.550781 19.261719 C 10.339844 17.011719 10.1875 14.378906 10.136719 12.886719 C 10.046875 10.207031 11.203125 9.667969 13.671875 9.519531 C 17.488281 9.292969 26.292969 9.066406 33.367188 8.882812 C 37.652344 8.773438 41.355469 8.679688 42.660156 8.613281 C 43.441406 8.578125 44.195312 8.578125 44.796875 8.992188 C 45.542969 9.503906 45.683594 10.371094 45.722656 11.234375 C 45.878906 14.636719 45.773438 19.03125 45.445312 22.703125 C 45.394531 23.296875 44.894531 23.78125 44.257812 23.851562 C 34.480469 24.917969 24.71875 25.054688 14.746094 25.109375 C 14.699219 25.109375 14.652344 25.109375 14.609375 25.109375 Z M 12.078125 23.714844 C 12.710938 24.257812 13.785156 24.300781 14.738281 24.296875 C 24.691406 24.238281 34.433594 24.101562 44.175781 23.042969 C 44.445312 23.011719 44.65625 22.835938 44.675781 22.628906 C 45 18.992188 45.105469 14.640625 44.949219 11.273438 C 44.917969 10.527344 44.804688 9.96875 44.375 9.675781 C 43.960938 9.390625 43.34375 9.394531 42.695312 9.429688 C 41.378906 9.496094 37.671875 9.589844 33.382812 9.699219 C 26.3125 9.878906 17.515625 10.105469 13.710938 10.335938 C 11.308594 10.476562 10.835938 10.902344 10.902344 12.859375 C 10.953125 14.300781 11.097656 16.863281 11.300781 19.070312 C 11.671875 23.007812 12.007812 23.625 12.078125 23.714844 Z M 12.078125 23.714844 " fill-opacity="1" fill-rule="nonzero"/><path fill="#fff7ff" d="M 5.621094 50.679688 C 5.371094 50.679688 5.125 50.652344 4.886719 50.597656 C 3.40625 50.246094 2.390625 48.742188 2.71875 47.375 C 2.871094 46.722656 3.308594 46.152344 3.914062 45.742188 C 3.621094 45.554688 3.371094 45.3125 3.175781 45.019531 C 2.074219 43.382812 2.308594 40.953125 3.722656 39.371094 C 4.179688 38.859375 4.742188 38.4375 5.378906 38.121094 C 4.800781 37.886719 4.273438 37.550781 3.839844 37.121094 C 2.40625 35.703125 2.078125 33.375 3.082031 31.707031 C 3.316406 31.3125 3.621094 30.972656 3.96875 30.691406 C 3.671875 30.519531 3.390625 30.308594 3.140625 30.066406 C 1.808594 28.757812 1.464844 26.609375 2.328125 24.957031 C 2.679688 24.285156 3.207031 23.730469 3.832031 23.332031 C 3.394531 23.117188 2.996094 22.8125 2.683594 22.429688 C 1.660156 21.167969 1.664062 19.195312 2.695312 17.941406 C 2.832031 17.773438 2.988281 17.625 3.152344 17.488281 C 2.9375 17.34375 2.738281 17.179688 2.558594 16.992188 C 1.410156 15.792969 1.207031 13.828125 2.09375 12.421875 C 2.289062 12.109375 2.535156 11.832031 2.816406 11.597656 C 2.453125 11.398438 2.121094 11.136719 1.851562 10.816406 C 0.730469 9.492188 0.785156 7.390625 1.96875 6.125 C 3.15625 4.863281 5.253906 4.671875 6.652344 5.695312 C 6.808594 5.8125 6.84375 6.03125 6.726562 6.191406 C 6.613281 6.347656 6.390625 6.378906 6.234375 6.265625 C 5.132812 5.457031 3.417969 5.613281 2.484375 6.609375 C 1.550781 7.601562 1.507812 9.320312 2.390625 10.359375 C 2.6875 10.710938 3.078125 10.972656 3.507812 11.132812 C 4.394531 10.671875 5.457031 10.546875 6.417969 10.855469 C 6.546875 10.898438 6.640625 11.011719 6.660156 11.144531 C 6.679688 11.277344 6.617188 11.410156 6.503906 11.484375 C 5.648438 12.050781 4.566406 12.175781 3.589844 11.910156 C 3.230469 12.140625 2.917969 12.441406 2.691406 12.800781 C 1.984375 13.921875 2.152344 15.550781 3.070312 16.507812 C 3.285156 16.730469 3.539062 16.917969 3.820312 17.058594 C 4.835938 16.554688 6.089844 16.515625 7.105469 17.042969 C 7.222656 17.101562 7.292969 17.21875 7.296875 17.347656 C 7.296875 17.476562 7.230469 17.597656 7.117188 17.660156 C 6.125 18.21875 4.894531 18.261719 3.851562 17.847656 C 3.625 17.996094 3.421875 18.175781 3.25 18.386719 C 2.425781 19.390625 2.417969 20.972656 3.238281 21.980469 C 3.605469 22.4375 4.125 22.75 4.683594 22.90625 C 5.414062 22.632812 6.214844 22.546875 6.992188 22.6875 C 7.140625 22.714844 7.257812 22.835938 7.28125 22.984375 C 7.300781 23.128906 7.226562 23.277344 7.089844 23.347656 C 6.378906 23.714844 5.546875 23.800781 4.765625 23.644531 C 4 23.976562 3.339844 24.550781 2.960938 25.28125 C 2.25 26.644531 2.542969 28.480469 3.640625 29.558594 C 3.933594 29.847656 4.28125 30.074219 4.65625 30.242188 C 5.773438 29.65625 7.152344 29.578125 8.273438 30.15625 C 8.386719 30.214844 8.460938 30.335938 8.460938 30.46875 C 8.460938 30.597656 8.390625 30.71875 8.277344 30.78125 C 7.1875 31.371094 5.867188 31.4375 4.714844 31.03125 C 4.300781 31.296875 3.945312 31.648438 3.691406 32.070312 C 2.867188 33.445312 3.152344 35.441406 4.34375 36.617188 C 4.902344 37.171875 5.636719 37.542969 6.433594 37.707031 C 7.296875 37.453125 8.238281 37.375 9.183594 37.492188 C 9.34375 37.511719 9.472656 37.636719 9.492188 37.796875 C 9.511719 37.957031 9.417969 38.109375 9.269531 38.167969 C 8.378906 38.507812 7.402344 38.589844 6.476562 38.429688 C 5.605469 38.707031 4.832031 39.1875 4.257812 39.832031 C 3.050781 41.183594 2.839844 43.242188 3.769531 44.625 C 4.023438 45 4.371094 45.21875 4.707031 45.347656 C 4.882812 45.285156 5.0625 45.234375 5.253906 45.195312 C 5.566406 45.132812 5.914062 45.019531 6.285156 44.898438 C 7.089844 44.636719 7.921875 44.367188 8.699219 44.503906 C 8.835938 44.53125 8.945312 44.628906 8.976562 44.761719 C 9.011719 44.894531 8.964844 45.035156 8.859375 45.125 C 7.855469 45.953125 6.402344 46.367188 5.160156 46.1875 C 5.015625 46.167969 4.875 46.136719 4.738281 46.097656 C 4.125 46.378906 3.574219 46.867188 3.410156 47.535156 C 3.175781 48.519531 3.960938 49.652344 5.054688 49.910156 C 6.070312 50.148438 7.265625 49.722656 8.097656 48.816406 C 8.230469 48.675781 8.453125 48.664062 8.597656 48.796875 C 8.738281 48.929688 8.75 49.152344 8.617188 49.296875 C 7.800781 50.179688 6.683594 50.679688 5.621094 50.679688 Z M 5.84375 30.554688 C 6.234375 30.59375 6.632812 30.574219 7.015625 30.496094 C 6.628906 30.445312 6.234375 30.46875 5.84375 30.554688 Z M 5.015625 17.398438 C 5.273438 17.417969 5.535156 17.414062 5.792969 17.375 C 5.535156 17.347656 5.269531 17.355469 5.015625 17.398438 Z M 5.015625 17.398438 " fill-opacity="1" fill-rule="nonzero"/></g></g></g><g mask="url(#991a2268b7)"><g transform="matrix(1, 0, 0, 1, 83, 132)"><g clip-path="url(#f71c989489)"><g clip-path="url(#d3925d0c72)"><path fill="#fff7ff" d="M 16.144531 50.113281 C 13.273438 50.113281 10.34375 50.070312 7.347656 50.011719 C 6.261719 49.992188 5.367188 49.132812 5.3125 48.058594 L 3.632812 13.675781 C 3.582031 12.660156 3.53125 11.644531 3.480469 10.625 C 3.378906 8.628906 3.273438 6.558594 3.183594 4.527344 C 3.125 3.1875 3.273438 2.5 3.710938 2.074219 C 4.207031 1.59375 4.898438 1.632812 5.773438 1.6875 C 6.199219 1.710938 6.683594 1.742188 7.238281 1.722656 C 10.039062 1.625 12.890625 1.445312 15.644531 1.277344 C 18.773438 1.085938 22.011719 0.890625 25.207031 0.800781 C 31.699219 0.628906 38.277344 0.625 44.765625 0.789062 C 45.535156 0.804688 46.148438 1.421875 46.15625 2.179688 C 46.363281 16.488281 46.195312 30.988281 45.652344 45.285156 C 45.613281 46.292969 44.898438 47.171875 43.90625 47.414062 C 35.035156 49.605469 25.925781 50.113281 16.144531 50.113281 Z M 5.03125 2.71875 C 4.761719 2.71875 4.554688 2.742188 4.464844 2.828125 C 4.34375 2.945312 4.210938 3.328125 4.261719 4.476562 C 4.351562 6.507812 4.453125 8.574219 4.554688 10.570312 C 4.605469 11.585938 4.65625 12.605469 4.707031 13.625 L 6.386719 48.003906 C 6.414062 48.523438 6.84375 48.933594 7.367188 48.945312 C 20.5 49.199219 32.292969 49.183594 43.644531 46.382812 C 44.171875 46.25 44.550781 45.785156 44.574219 45.242188 C 45.113281 30.964844 45.285156 16.484375 45.078125 2.195312 C 45.078125 2.007812 44.925781 1.855469 44.734375 1.851562 C 38.265625 1.6875 31.707031 1.691406 25.234375 1.867188 C 22.058594 1.953125 18.828125 2.152344 15.710938 2.339844 C 12.949219 2.511719 10.089844 2.6875 7.277344 2.785156 C 6.667969 2.804688 6.136719 2.773438 5.707031 2.746094 C 5.460938 2.730469 5.230469 2.71875 5.03125 2.71875 Z M 5.03125 2.71875 " fill-opacity="1" fill-rule="nonzero"/></g><path fill="#fff7ff" d="M 13.441406 23.644531 C 12.464844 23.644531 11.382812 23.574219 10.644531 22.9375 C 10.464844 22.78125 10.085938 22.457031 9.691406 18.285156 C 9.496094 16.222656 9.355469 13.8125 9.308594 12.445312 C 9.226562 9.988281 10.296875 9.492188 12.578125 9.359375 C 16.101562 9.148438 24.242188 8.941406 30.78125 8.777344 C 34.742188 8.675781 38.164062 8.585938 39.371094 8.527344 C 40.09375 8.492188 40.789062 8.492188 41.347656 8.875 C 42.035156 9.34375 42.164062 10.140625 42.199219 10.929688 C 42.34375 14.046875 42.246094 18.074219 41.945312 21.441406 C 41.894531 21.984375 41.433594 22.425781 40.847656 22.492188 C 31.808594 23.46875 22.785156 23.59375 13.570312 23.644531 C 13.523438 23.644531 13.484375 23.644531 13.441406 23.644531 Z M 11.101562 22.367188 C 11.6875 22.867188 12.679688 22.90625 13.5625 22.902344 C 22.761719 22.847656 31.765625 22.722656 40.773438 21.75 C 41.019531 21.722656 41.214844 21.5625 41.234375 21.375 C 41.535156 18.039062 41.628906 14.050781 41.488281 10.96875 C 41.457031 10.28125 41.351562 9.769531 40.953125 9.5 C 40.574219 9.242188 40.003906 9.246094 39.402344 9.277344 C 38.183594 9.335938 34.761719 9.421875 30.792969 9.523438 C 24.257812 9.6875 16.128906 9.894531 12.613281 10.105469 C 10.390625 10.238281 9.957031 10.625 10.015625 12.417969 C 10.0625 13.742188 10.195312 16.089844 10.386719 18.113281 C 10.726562 21.722656 11.035156 22.285156 11.101562 22.367188 Z M 11.101562 22.367188 " fill-opacity="1" fill-rule="nonzero"/><g clip-path="url(#64acbfa0eb)"><path fill="#fff7ff" d="M 5.132812 47.082031 C 4.902344 47.082031 4.675781 47.058594 4.453125 47.003906 C 3.085938 46.683594 2.148438 45.304688 2.449219 44.054688 C 2.59375 43.457031 2.996094 42.929688 3.558594 42.558594 C 3.285156 42.382812 3.054688 42.160156 2.875 41.894531 C 1.855469 40.394531 2.074219 38.167969 3.378906 36.714844 C 3.800781 36.246094 4.324219 35.859375 4.910156 35.570312 C 4.375 35.355469 3.890625 35.046875 3.488281 34.652344 C 2.164062 33.355469 1.859375 31.222656 2.785156 29.695312 C 3.003906 29.332031 3.285156 29.019531 3.609375 28.761719 C 3.332031 28.605469 3.074219 28.410156 2.84375 28.1875 C 1.609375 26.992188 1.292969 25.019531 2.089844 23.507812 C 2.414062 22.890625 2.902344 22.382812 3.480469 22.019531 C 3.074219 21.820312 2.707031 21.542969 2.421875 21.1875 C 1.472656 20.035156 1.476562 18.226562 2.429688 17.078125 C 2.558594 16.925781 2.699219 16.785156 2.851562 16.660156 C 2.652344 16.53125 2.46875 16.378906 2.304688 16.207031 C 1.242188 15.105469 1.054688 13.308594 1.871094 12.019531 C 2.054688 11.730469 2.28125 11.476562 2.542969 11.261719 C 2.207031 11.082031 1.898438 10.839844 1.648438 10.546875 C 0.613281 9.335938 0.664062 7.40625 1.757812 6.25 C 2.855469 5.089844 4.796875 4.914062 6.089844 5.855469 C 6.234375 5.960938 6.265625 6.160156 6.15625 6.308594 C 6.050781 6.449219 5.847656 6.480469 5.699219 6.375 C 4.683594 5.636719 3.097656 5.78125 2.234375 6.691406 C 1.375 7.601562 1.332031 9.175781 2.148438 10.128906 C 2.421875 10.449219 2.785156 10.6875 3.183594 10.839844 C 4 10.414062 4.980469 10.300781 5.871094 10.582031 C 5.992188 10.621094 6.078125 10.722656 6.09375 10.847656 C 6.109375 10.96875 6.054688 11.089844 5.953125 11.160156 C 5.160156 11.679688 4.15625 11.792969 3.257812 11.546875 C 2.925781 11.761719 2.632812 12.035156 2.425781 12.367188 C 1.773438 13.394531 1.925781 14.882812 2.777344 15.761719 C 2.976562 15.96875 3.210938 16.136719 3.46875 16.269531 C 4.40625 15.804688 5.566406 15.769531 6.503906 16.253906 C 6.613281 16.304688 6.679688 16.414062 6.683594 16.53125 C 6.683594 16.652344 6.621094 16.761719 6.515625 16.820312 C 5.601562 17.332031 4.464844 17.371094 3.5 16.992188 C 3.289062 17.125 3.101562 17.292969 2.941406 17.484375 C 2.179688 18.40625 2.175781 19.855469 2.933594 20.78125 C 3.273438 21.195312 3.75 21.484375 4.269531 21.628906 C 4.941406 21.378906 5.683594 21.296875 6.402344 21.425781 C 6.539062 21.453125 6.644531 21.5625 6.667969 21.695312 C 6.6875 21.832031 6.617188 21.96875 6.492188 22.03125 C 5.835938 22.367188 5.066406 22.445312 4.34375 22.304688 C 3.636719 22.609375 3.027344 23.132812 2.675781 23.804688 C 2.015625 25.050781 2.289062 26.738281 3.304688 27.726562 C 3.574219 27.988281 3.894531 28.199219 4.242188 28.351562 C 5.277344 27.8125 6.546875 27.742188 7.585938 28.273438 C 7.691406 28.328125 7.761719 28.4375 7.761719 28.558594 C 7.761719 28.675781 7.695312 28.789062 7.589844 28.84375 C 6.582031 29.386719 5.363281 29.445312 4.296875 29.074219 C 3.914062 29.316406 3.585938 29.636719 3.351562 30.027344 C 2.589844 31.285156 2.851562 33.117188 3.953125 34.195312 C 4.46875 34.699219 5.148438 35.042969 5.882812 35.191406 C 6.683594 34.960938 7.554688 34.886719 8.429688 34.992188 C 8.578125 35.011719 8.695312 35.128906 8.710938 35.273438 C 8.730469 35.421875 8.644531 35.5625 8.503906 35.613281 C 7.683594 35.925781 6.78125 36 5.925781 35.851562 C 5.121094 36.109375 4.40625 36.550781 3.871094 37.140625 C 2.757812 38.378906 2.566406 40.265625 3.421875 41.53125 C 3.65625 41.875 3.976562 42.078125 4.289062 42.195312 C 4.453125 42.136719 4.621094 42.089844 4.792969 42.054688 C 5.085938 41.996094 5.40625 41.894531 5.746094 41.78125 C 6.492188 41.542969 7.261719 41.296875 7.980469 41.421875 C 8.105469 41.445312 8.207031 41.535156 8.238281 41.660156 C 8.269531 41.78125 8.226562 41.910156 8.128906 41.992188 C 7.199219 42.746094 5.855469 43.128906 4.707031 42.964844 C 4.574219 42.945312 4.441406 42.917969 4.320312 42.882812 C 3.753906 43.136719 3.242188 43.585938 3.089844 44.199219 C 2.875 45.101562 3.597656 46.136719 4.609375 46.375 C 5.550781 46.59375 6.65625 46.203125 7.421875 45.375 C 7.542969 45.242188 7.753906 45.234375 7.882812 45.355469 C 8.015625 45.476562 8.027344 45.683594 7.902344 45.8125 C 7.148438 46.621094 6.117188 47.082031 5.132812 47.082031 Z M 5.339844 28.636719 C 5.703125 28.671875 6.070312 28.65625 6.421875 28.582031 C 6.066406 28.535156 5.699219 28.558594 5.339844 28.636719 Z M 4.574219 16.578125 C 4.816406 16.597656 5.054688 16.59375 5.292969 16.558594 C 5.054688 16.53125 4.808594 16.539062 4.574219 16.578125 Z M 4.574219 16.578125 " fill-opacity="1" fill-rule="nonzero"/></g></g></g></g><g mask="url(#40ee9a92a0)"><g transform="matrix(1, 0, 0, 1, 41, 82)"><g clip-path="url(#e8228e5105)"><g clip-path="url(#cd5db812b2)"><path fill="#fff7ff" d="M 23.085938 8.59375 C 23.171875 8.273438 23.226562 8.042969 23.296875 7.820312 C 23.949219 5.695312 25.3125 4.195312 27.3125 3.25 C 28.382812 2.742188 29.5 2.371094 30.632812 2.03125 C 31.753906 1.691406 32.824219 1.242188 33.828125 0.632812 C 34.453125 0.253906 34.769531 0.375 34.984375 1.082031 C 36.011719 4.464844 34.859375 8.96875 30.726562 11.007812 C 29.207031 11.757812 27.625 12.191406 25.917969 12.085938 C 25.230469 12.046875 24.574219 11.867188 23.898438 11.65625 C 23.929688 12.207031 23.96875 12.722656 23.988281 13.238281 C 24.015625 13.949219 23.957031 14.65625 23.828125 15.355469 C 23.730469 15.882812 23.5 16.101562 22.957031 16.125 C 22.289062 16.15625 21.679688 15.964844 21.089844 15.671875 C 19.613281 14.929688 18.109375 14.261719 16.496094 13.871094 C 12.628906 12.941406 9.070312 13.542969 5.953125 16.089844 C 4.320312 17.425781 3.394531 19.242188 2.703125 21.1875 C 1.925781 23.378906 1.804688 25.648438 1.976562 27.9375 C 2.15625 30.347656 2.589844 32.71875 3.535156 34.953125 C 5.164062 38.8125 7.175781 42.453125 10.078125 45.527344 C 11.820312 47.371094 13.882812 48.707031 16.394531 49.300781 C 17.847656 49.644531 19.230469 49.59375 20.5625 48.855469 C 21.332031 48.429688 22.164062 48.160156 23.023438 47.960938 C 23.742188 47.792969 24.441406 47.878906 25.128906 48.082031 C 25.710938 48.253906 26.300781 48.417969 26.828125 48.734375 C 28.523438 49.75 30.28125 49.65625 32.085938 49.078125 C 34.503906 48.300781 36.476562 46.855469 38.097656 44.949219 C 41.097656 41.429688 43.378906 37.480469 44.75 33.0625 C 45.632812 30.222656 45.964844 27.28125 45.628906 24.308594 C 45.28125 21.25 44.226562 18.460938 41.929688 16.304688 C 40.152344 14.640625 37.976562 13.769531 35.550781 13.523438 C 33.066406 13.269531 30.738281 13.835938 28.464844 14.78125 C 27.253906 15.289062 26.234375 16.078125 25.160156 16.796875 C 23.375 17.984375 21.457031 18.339844 19.390625 17.644531 C 18.902344 17.484375 18.472656 17.210938 18.054688 16.925781 C 17.824219 16.769531 17.585938 16.585938 17.785156 16.28125 C 17.984375 15.976562 18.25 16.101562 18.480469 16.265625 C 19.035156 16.65625 19.632812 16.957031 20.304688 17.09375 C 21.917969 17.421875 23.382812 17.046875 24.722656 16.140625 C 25.625 15.53125 26.484375 14.851562 27.464844 14.363281 C 29.128906 13.542969 30.886719 13.007812 32.726562 12.78125 C 35.398438 12.445312 37.9375 12.894531 40.316406 14.183594 C 42.871094 15.5625 44.460938 17.730469 45.492188 20.375 C 46.464844 22.867188 46.648438 25.449219 46.445312 28.078125 C 46.222656 30.964844 45.601562 33.757812 44.363281 36.394531 C 42.816406 39.699219 41.035156 42.863281 38.585938 45.597656 C 36.703125 47.699219 34.476562 49.28125 31.695312 50.007812 C 29.945312 50.460938 28.261719 50.425781 26.636719 49.523438 C 26.019531 49.179688 25.34375 48.929688 24.652344 48.765625 C 23.578125 48.511719 22.59375 48.824219 21.621094 49.242188 C 20.84375 49.578125 20.101562 50.015625 19.265625 50.191406 C 17.863281 50.484375 16.507812 50.207031 15.179688 49.777344 C 12.679688 48.960938 10.640625 47.449219 8.960938 45.476562 C 5.878906 41.855469 3.53125 37.800781 2.128906 33.257812 C 1.222656 30.3125 0.898438 27.269531 1.242188 24.199219 C 1.605469 20.953125 2.742188 18.015625 5.175781 15.730469 C 7.070312 13.960938 9.375 13.019531 11.957031 12.75 C 14.964844 12.4375 17.746094 13.210938 20.433594 14.472656 C 21.09375 14.785156 21.722656 15.183594 22.460938 15.320312 C 22.960938 15.414062 23.058594 15.363281 23.109375 14.882812 C 23.476562 11.441406 22.59375 8.363281 20.367188 5.691406 C 19.941406 5.179688 19.425781 4.765625 18.820312 4.476562 C 18.554688 4.347656 18.339844 4.160156 18.503906 3.851562 C 18.671875 3.546875 18.953125 3.636719 19.203125 3.773438 C 20.59375 4.527344 21.535156 5.707031 22.300781 7.050781 C 22.566406 7.519531 22.789062 8.011719 23.085938 8.59375 Z M 24.3125 10.949219 C 24.953125 11.164062 25.503906 11.285156 26.074219 11.3125 C 27.765625 11.394531 29.300781 10.890625 30.761719 10.089844 C 33.871094 8.390625 35.066406 4.808594 34.351562 1.6875 C 34.277344 1.371094 34.195312 1.304688 33.894531 1.492188 C 33.136719 1.957031 32.320312 2.3125 31.46875 2.582031 C 30.5625 2.871094 29.65625 3.160156 28.765625 3.488281 C 27.292969 4.035156 25.945312 4.769531 25.007812 6.089844 C 24.113281 7.351562 23.75 8.761719 23.753906 10.320312 C 23.855469 10.28125 23.914062 10.265625 23.96875 10.238281 C 26.722656 8.917969 29.191406 7.210938 31.261719 4.957031 C 31.601562 4.589844 31.828125 4.511719 32.019531 4.71875 C 32.316406 5.050781 32.035156 5.277344 31.835938 5.496094 C 30.691406 6.746094 29.40625 7.839844 28.015625 8.804688 C 26.867188 9.601562 25.664062 10.296875 24.3125 10.949219 Z M 5.523438 29.851562 C 6.066406 33.175781 7.277344 36.257812 9.03125 39.132812 C 10.453125 41.464844 12.183594 43.542969 14.3125 45.28125 C 14.527344 45.457031 14.765625 45.578125 14.976562 45.3125 C 15.183594 45.054688 15.015625 44.847656 14.804688 44.667969 C 14.375 44.292969 13.933594 43.929688 13.527344 43.527344 C 9.769531 39.792969 7.382812 35.316406 6.375 30.128906 C 5.914062 27.742188 5.867188 25.34375 6.503906 22.96875 C 7.097656 20.753906 8.191406 18.878906 10.265625 17.707031 C 10.328125 17.671875 10.390625 17.621094 10.441406 17.5625 C 10.550781 17.4375 10.574219 17.289062 10.492188 17.140625 C 10.414062 16.992188 10.28125 16.929688 10.109375 16.941406 C 9.953125 16.957031 9.824219 17.046875 9.695312 17.121094 C 8.371094 17.910156 7.382812 19.011719 6.667969 20.359375 C 5.621094 22.335938 5.273438 24.46875 5.261719 26.671875 C 5.25 27.742188 5.351562 28.800781 5.523438 29.851562 Z M 12.058594 17.089844 C 12.28125 17.101562 12.417969 16.972656 12.433594 16.753906 C 12.449219 16.527344 12.320312 16.390625 12.097656 16.378906 C 11.875 16.363281 11.746094 16.488281 11.71875 16.722656 C 11.730469 16.929688 11.828125 17.082031 12.058594 17.089844 Z M 12.058594 17.089844 " fill-opacity="1" fill-rule="nonzero"/><path fill="#fff7ff" d="M 23.085938 8.59375 C 23.171875 8.273438 23.226562 8.042969 23.296875 7.820312 C 23.949219 5.695312 25.3125 4.195312 27.3125 3.25 C 28.382812 2.742188 29.5 2.371094 30.632812 2.03125 C 31.753906 1.691406 32.824219 1.242188 33.828125 0.632812 C 34.453125 0.253906 34.769531 0.375 34.984375 1.082031 C 36.011719 4.464844 34.859375 8.96875 30.726562 11.007812 C 29.207031 11.757812 27.625 12.191406 25.917969 12.085938 C 25.230469 12.046875 24.574219 11.867188 23.898438 11.65625 C 23.929688 12.207031 23.96875 12.722656 23.988281 13.238281 C 24.015625 13.949219 23.957031 14.65625 23.828125 15.355469 C 23.730469 15.882812 23.5 16.101562 22.957031 16.125 C 22.289062 16.15625 21.679688 15.964844 21.089844 15.671875 C 19.613281 14.929688 18.109375 14.261719 16.496094 13.871094 C 12.628906 12.941406 9.070312 13.542969 5.953125 16.089844 C 4.320312 17.425781 3.394531 19.242188 2.703125 21.1875 C 1.925781 23.378906 1.804688 25.648438 1.976562 27.9375 C 2.15625 30.347656 2.589844 32.71875 3.535156 34.953125 C 5.164062 38.8125 7.175781 42.453125 10.078125 45.527344 C 11.820312 47.371094 13.882812 48.707031 16.394531 49.300781 C 17.847656 49.644531 19.230469 49.59375 20.5625 48.855469 C 21.332031 48.429688 22.164062 48.160156 23.023438 47.960938 C 23.742188 47.792969 24.441406 47.878906 25.128906 48.082031 C 25.710938 48.253906 26.300781 48.417969 26.828125 48.734375 C 28.523438 49.75 30.28125 49.65625 32.085938 49.078125 C 34.503906 48.300781 36.476562 46.855469 38.097656 44.949219 C 41.097656 41.429688 43.378906 37.480469 44.75 33.0625 C 45.632812 30.222656 45.964844 27.28125 45.628906 24.308594 C 45.28125 21.25 44.226562 18.460938 41.929688 16.304688 C 40.152344 14.640625 37.976562 13.769531 35.550781 13.523438 C 33.066406 13.269531 30.738281 13.835938 28.464844 14.78125 C 27.253906 15.289062 26.234375 16.078125 25.160156 16.796875 C 23.375 17.984375 21.457031 18.339844 19.390625 17.644531 C 18.902344 17.484375 18.472656 17.210938 18.054688 16.925781 C 17.824219 16.769531 17.585938 16.585938 17.785156 16.28125 C 17.984375 15.976562 18.25 16.101562 18.480469 16.265625 C 19.035156 16.65625 19.632812 16.957031 20.304688 17.09375 C 21.917969 17.421875 23.382812 17.046875 24.722656 16.140625 C 25.625 15.53125 26.484375 14.851562 27.464844 14.363281 C 29.128906 13.542969 30.886719 13.007812 32.726562 12.78125 C 35.398438 12.445312 37.9375 12.894531 40.316406 14.183594 C 42.871094 15.5625 44.460938 17.730469 45.492188 20.375 C 46.464844 22.867188 46.648438 25.449219 46.445312 28.078125 C 46.222656 30.964844 45.601562 33.757812 44.363281 36.394531 C 42.816406 39.699219 41.035156 42.863281 38.585938 45.597656 C 36.703125 47.699219 34.476562 49.28125 31.695312 50.007812 C 29.945312 50.460938 28.261719 50.425781 26.636719 49.523438 C 26.019531 49.179688 25.34375 48.929688 24.652344 48.765625 C 23.578125 48.511719 22.59375 48.824219 21.621094 49.242188 C 20.84375 49.578125 20.101562 50.015625 19.265625 50.191406 C 17.863281 50.484375 16.507812 50.207031 15.179688 49.777344 C 12.679688 48.960938 10.640625 47.449219 8.960938 45.476562 C 5.878906 41.855469 3.53125 37.800781 2.128906 33.257812 C 1.222656 30.3125 0.898438 27.269531 1.242188 24.199219 C 1.605469 20.953125 2.742188 18.015625 5.175781 15.730469 C 7.070312 13.960938 9.375 13.019531 11.957031 12.75 C 14.964844 12.4375 17.746094 13.210938 20.433594 14.472656 C 21.09375 14.785156 21.722656 15.183594 22.460938 15.320312 C 22.960938 15.414062 23.058594 15.363281 23.109375 14.882812 C 23.476562 11.441406 22.59375 8.363281 20.367188 5.691406 C 19.941406 5.179688 19.425781 4.765625 18.820312 4.476562 C 18.554688 4.347656 18.339844 4.160156 18.503906 3.851562 C 18.671875 3.546875 18.953125 3.636719 19.203125 3.773438 C 20.59375 4.527344 21.535156 5.707031 22.300781 7.050781 C 22.566406 7.519531 22.789062 8.011719 23.085938 8.59375 Z M 24.3125 10.949219 C 24.953125 11.164062 25.503906 11.285156 26.074219 11.3125 C 27.765625 11.394531 29.300781 10.890625 30.761719 10.089844 C 33.871094 8.390625 35.066406 4.808594 34.351562 1.6875 C 34.277344 1.371094 34.195312 1.304688 33.894531 1.492188 C 33.136719 1.957031 32.320312 2.3125 31.46875 2.582031 C 30.5625 2.871094 29.65625 3.160156 28.765625 3.488281 C 27.292969 4.035156 25.945312 4.769531 25.007812 6.089844 C 24.113281 7.351562 23.75 8.761719 23.753906 10.320312 C 23.855469 10.28125 23.914062 10.265625 23.96875 10.238281 C 26.722656 8.917969 29.191406 7.210938 31.261719 4.957031 C 31.601562 4.589844 31.828125 4.511719 32.019531 4.71875 C 32.316406 5.050781 32.035156 5.277344 31.835938 5.496094 C 30.691406 6.746094 29.40625 7.839844 28.015625 8.804688 C 26.867188 9.601562 25.664062 10.296875 24.3125 10.949219 Z M 5.523438 29.851562 C 6.066406 33.175781 7.277344 36.257812 9.03125 39.132812 C 10.453125 41.464844 12.183594 43.542969 14.3125 45.28125 C 14.527344 45.457031 14.765625 45.578125 14.976562 45.3125 C 15.183594 45.054688 15.015625 44.847656 14.804688 44.667969 C 14.375 44.292969 13.933594 43.929688 13.527344 43.527344 C 9.769531 39.792969 7.382812 35.316406 6.375 30.128906 C 5.914062 27.742188 5.867188 25.34375 6.503906 22.96875 C 7.097656 20.753906 8.191406 18.878906 10.265625 17.707031 C 10.328125 17.671875 10.390625 17.621094 10.441406 17.5625 C 10.550781 17.4375 10.574219 17.289062 10.492188 17.140625 C 10.414062 16.992188 10.28125 16.929688 10.109375 16.941406 C 9.953125 16.957031 9.824219 17.046875 9.695312 17.121094 C 8.371094 17.910156 7.382812 19.011719 6.667969 20.359375 C 5.621094 22.335938 5.273438 24.46875 5.261719 26.671875 C 5.25 27.742188 5.351562 28.800781 5.523438 29.851562 Z M 12.058594 17.089844 C 12.28125 17.101562 12.417969 16.972656 12.433594 16.753906 C 12.449219 16.527344 12.320312 16.390625 12.097656 16.378906 C 11.875 16.363281 11.746094 16.488281 11.71875 16.722656 C 11.730469 16.929688 11.828125 17.082031 12.058594 17.089844 Z M 12.058594 17.089844 " fill-opacity="1" fill-rule="nonzero"/></g></g></g></g><g mask="url(#7a1d365405)"><g transform="matrix(1, 0, 0, 1, 286, 67)"><g clip-path="url(#43d5c63594)"><g clip-path="url(#19f18ccc7f)"><path fill="#fff7ff" d="M 24.308594 9.582031 C 24.402344 9.230469 24.464844 8.980469 24.539062 8.738281 C 25.242188 6.421875 26.71875 4.789062 28.882812 3.757812 C 30.039062 3.207031 31.25 2.800781 32.472656 2.429688 C 33.691406 2.0625 34.847656 1.570312 35.933594 0.90625 C 36.609375 0.496094 36.949219 0.625 37.183594 1.394531 C 38.296875 5.082031 37.046875 9.992188 32.578125 12.210938 C 30.933594 13.03125 29.222656 13.503906 27.375 13.390625 C 26.632812 13.34375 25.917969 13.148438 25.1875 12.917969 C 25.222656 13.519531 25.265625 14.082031 25.285156 14.644531 C 25.3125 15.417969 25.253906 16.1875 25.113281 16.953125 C 25.007812 17.523438 24.757812 17.761719 24.171875 17.789062 C 23.449219 17.824219 22.785156 17.613281 22.152344 17.292969 C 20.554688 16.484375 18.925781 15.757812 17.179688 15.332031 C 12.996094 14.320312 9.148438 14.972656 5.773438 17.75 C 4.003906 19.203125 3.003906 21.183594 2.253906 23.304688 C 1.414062 25.695312 1.285156 28.167969 1.46875 30.664062 C 1.664062 33.289062 2.132812 35.871094 3.15625 38.308594 C 4.917969 42.511719 7.09375 46.480469 10.238281 49.832031 C 12.121094 51.835938 14.351562 53.296875 17.070312 53.941406 C 18.640625 54.316406 20.140625 54.261719 21.582031 53.457031 C 22.414062 52.992188 23.3125 52.699219 24.242188 52.480469 C 25.019531 52.300781 25.777344 52.394531 26.519531 52.613281 C 27.148438 52.800781 27.789062 52.980469 28.359375 53.324219 C 30.195312 54.429688 32.097656 54.332031 34.046875 53.699219 C 36.664062 52.851562 38.800781 51.277344 40.554688 49.203125 C 43.796875 45.363281 46.265625 41.0625 47.75 36.246094 C 48.703125 33.152344 49.0625 29.945312 48.699219 26.707031 C 48.324219 23.375 47.183594 20.335938 44.695312 17.984375 C 42.777344 16.167969 40.421875 15.222656 37.796875 14.953125 C 35.109375 14.675781 32.589844 15.292969 30.128906 16.328125 C 28.820312 16.875 27.714844 17.738281 26.554688 18.519531 C 24.625 19.816406 22.546875 20.203125 20.308594 19.445312 C 19.785156 19.269531 19.320312 18.972656 18.863281 18.664062 C 18.613281 18.492188 18.359375 18.292969 18.574219 17.960938 C 18.789062 17.628906 19.078125 17.765625 19.328125 17.941406 C 19.929688 18.371094 20.574219 18.695312 21.300781 18.84375 C 23.046875 19.199219 24.628906 18.792969 26.078125 17.808594 C 27.058594 17.140625 27.984375 16.398438 29.050781 15.871094 C 30.847656 14.972656 32.75 14.394531 34.738281 14.144531 C 37.632812 13.78125 40.378906 14.269531 42.953125 15.671875 C 45.714844 17.175781 47.433594 19.539062 48.554688 22.421875 C 49.605469 25.136719 49.800781 27.953125 49.585938 30.8125 C 49.34375 33.957031 48.667969 37.003906 47.332031 39.875 C 45.660156 43.476562 43.730469 46.925781 41.078125 49.90625 C 39.042969 52.199219 36.632812 53.921875 33.625 54.710938 C 31.730469 55.207031 29.910156 55.167969 28.152344 54.183594 C 27.484375 53.8125 26.753906 53.539062 26.003906 53.359375 C 24.84375 53.082031 23.777344 53.425781 22.726562 53.878906 C 21.882812 54.242188 21.082031 54.71875 20.175781 54.910156 C 18.660156 55.230469 17.191406 54.929688 15.753906 54.460938 C 13.050781 53.574219 10.84375 51.921875 9.027344 49.773438 C 5.695312 45.832031 3.152344 41.410156 1.636719 36.457031 C 0.65625 33.25 0.300781 29.933594 0.675781 26.589844 C 1.066406 23.050781 2.300781 19.847656 4.933594 17.359375 C 6.980469 15.429688 9.476562 14.40625 12.269531 14.113281 C 15.523438 13.769531 18.53125 14.613281 21.4375 15.988281 C 22.15625 16.328125 22.835938 16.761719 23.636719 16.910156 C 24.171875 17.011719 24.28125 16.960938 24.335938 16.4375 C 24.734375 12.683594 23.777344 9.328125 21.367188 6.417969 C 20.90625 5.863281 20.347656 5.410156 19.691406 5.09375 C 19.40625 4.953125 19.171875 4.75 19.355469 4.417969 C 19.535156 4.082031 19.835938 4.179688 20.109375 4.328125 C 21.613281 5.152344 22.632812 6.4375 23.457031 7.898438 C 23.746094 8.410156 23.992188 8.949219 24.308594 9.582031 Z M 25.636719 12.148438 C 26.328125 12.382812 26.925781 12.515625 27.542969 12.546875 C 29.375 12.636719 31.035156 12.085938 32.617188 11.210938 C 35.976562 9.359375 37.269531 5.457031 36.496094 2.054688 C 36.417969 1.710938 36.332031 1.640625 36.003906 1.84375 C 35.183594 2.351562 34.304688 2.738281 33.382812 3.03125 C 32.402344 3.347656 31.417969 3.660156 30.457031 4.019531 C 28.863281 4.613281 27.402344 5.414062 26.386719 6.855469 C 25.417969 8.230469 25.027344 9.765625 25.03125 11.464844 C 25.140625 11.421875 25.207031 11.402344 25.265625 11.375 C 28.242188 9.933594 30.914062 8.074219 33.15625 5.621094 C 33.523438 5.21875 33.769531 5.132812 33.972656 5.359375 C 34.296875 5.722656 33.992188 5.96875 33.777344 6.207031 C 32.539062 7.570312 31.148438 8.757812 29.644531 9.8125 C 28.402344 10.683594 27.097656 11.4375 25.636719 12.148438 Z M 5.308594 32.746094 C 5.894531 36.371094 7.207031 39.730469 9.101562 42.859375 C 10.644531 45.402344 12.515625 47.667969 14.816406 49.5625 C 15.046875 49.75 15.304688 49.886719 15.535156 49.597656 C 15.757812 49.316406 15.578125 49.089844 15.351562 48.894531 C 14.886719 48.484375 14.40625 48.085938 13.96875 47.648438 C 9.902344 43.578125 7.320312 38.703125 6.230469 33.046875 C 5.730469 30.449219 5.679688 27.832031 6.367188 25.246094 C 7.011719 22.832031 8.195312 20.792969 10.4375 19.515625 C 10.507812 19.472656 10.574219 19.417969 10.628906 19.355469 C 10.746094 19.21875 10.773438 19.058594 10.683594 18.894531 C 10.597656 18.734375 10.453125 18.667969 10.273438 18.679688 C 10.097656 18.695312 9.960938 18.792969 9.820312 18.875 C 8.386719 19.734375 7.320312 20.933594 6.546875 22.40625 C 5.414062 24.558594 5.035156 26.878906 5.027344 29.28125 C 5.011719 30.445312 5.121094 31.601562 5.308594 32.746094 Z M 12.378906 18.84375 C 12.621094 18.851562 12.769531 18.714844 12.785156 18.472656 C 12.804688 18.226562 12.660156 18.078125 12.421875 18.0625 C 12.179688 18.046875 12.039062 18.183594 12.007812 18.441406 C 12.023438 18.664062 12.128906 18.832031 12.378906 18.84375 Z M 12.378906 18.84375 " fill-opacity="1" fill-rule="nonzero"/><path fill="#fff7ff" d="M 24.308594 9.582031 C 24.402344 9.230469 24.464844 8.980469 24.539062 8.738281 C 25.242188 6.421875 26.71875 4.789062 28.882812 3.757812 C 30.039062 3.207031 31.25 2.800781 32.472656 2.429688 C 33.691406 2.0625 34.847656 1.570312 35.933594 0.90625 C 36.609375 0.496094 36.949219 0.625 37.183594 1.394531 C 38.296875 5.082031 37.046875 9.992188 32.578125 12.210938 C 30.933594 13.03125 29.222656 13.503906 27.375 13.390625 C 26.632812 13.34375 25.917969 13.148438 25.1875 12.917969 C 25.222656 13.519531 25.265625 14.082031 25.285156 14.644531 C 25.3125 15.417969 25.253906 16.1875 25.113281 16.953125 C 25.007812 17.523438 24.757812 17.761719 24.171875 17.789062 C 23.449219 17.824219 22.785156 17.613281 22.152344 17.292969 C 20.554688 16.484375 18.925781 15.757812 17.179688 15.332031 C 12.996094 14.320312 9.148438 14.972656 5.773438 17.75 C 4.003906 19.203125 3.003906 21.183594 2.253906 23.304688 C 1.414062 25.695312 1.285156 28.167969 1.46875 30.664062 C 1.664062 33.289062 2.132812 35.871094 3.15625 38.308594 C 4.917969 42.511719 7.09375 46.480469 10.238281 49.832031 C 12.121094 51.835938 14.351562 53.296875 17.070312 53.941406 C 18.640625 54.316406 20.140625 54.261719 21.582031 53.457031 C 22.414062 52.992188 23.3125 52.699219 24.242188 52.480469 C 25.019531 52.300781 25.777344 52.394531 26.519531 52.613281 C 27.148438 52.800781 27.789062 52.980469 28.359375 53.324219 C 30.195312 54.429688 32.097656 54.332031 34.046875 53.699219 C 36.664062 52.851562 38.800781 51.277344 40.554688 49.203125 C 43.796875 45.363281 46.265625 41.0625 47.75 36.246094 C 48.703125 33.152344 49.0625 29.945312 48.699219 26.707031 C 48.324219 23.375 47.183594 20.335938 44.695312 17.984375 C 42.777344 16.167969 40.421875 15.222656 37.796875 14.953125 C 35.109375 14.675781 32.589844 15.292969 30.128906 16.328125 C 28.820312 16.875 27.714844 17.738281 26.554688 18.519531 C 24.625 19.816406 22.546875 20.203125 20.308594 19.445312 C 19.785156 19.269531 19.320312 18.972656 18.863281 18.664062 C 18.613281 18.492188 18.359375 18.292969 18.574219 17.960938 C 18.789062 17.628906 19.078125 17.765625 19.328125 17.941406 C 19.929688 18.371094 20.574219 18.695312 21.300781 18.84375 C 23.046875 19.199219 24.628906 18.792969 26.078125 17.808594 C 27.058594 17.140625 27.984375 16.398438 29.050781 15.871094 C 30.847656 14.972656 32.75 14.394531 34.738281 14.144531 C 37.632812 13.78125 40.378906 14.269531 42.953125 15.671875 C 45.714844 17.175781 47.433594 19.539062 48.554688 22.421875 C 49.605469 25.136719 49.800781 27.953125 49.585938 30.8125 C 49.34375 33.957031 48.667969 37.003906 47.332031 39.875 C 45.660156 43.476562 43.730469 46.925781 41.078125 49.90625 C 39.042969 52.199219 36.632812 53.921875 33.625 54.710938 C 31.730469 55.207031 29.910156 55.167969 28.152344 54.183594 C 27.484375 53.8125 26.753906 53.539062 26.003906 53.359375 C 24.84375 53.082031 23.777344 53.425781 22.726562 53.878906 C 21.882812 54.242188 21.082031 54.71875 20.175781 54.910156 C 18.660156 55.230469 17.191406 54.929688 15.753906 54.460938 C 13.050781 53.574219 10.84375 51.921875 9.027344 49.773438 C 5.695312 45.832031 3.152344 41.410156 1.636719 36.457031 C 0.65625 33.25 0.300781 29.933594 0.675781 26.589844 C 1.066406 23.050781 2.300781 19.847656 4.933594 17.359375 C 6.980469 15.429688 9.476562 14.40625 12.269531 14.113281 C 15.523438 13.769531 18.53125 14.613281 21.4375 15.988281 C 22.15625 16.328125 22.835938 16.761719 23.636719 16.910156 C 24.171875 17.011719 24.28125 16.960938 24.335938 16.4375 C 24.734375 12.683594 23.777344 9.328125 21.367188 6.417969 C 20.90625 5.863281 20.347656 5.410156 19.691406 5.09375 C 19.40625 4.953125 19.171875 4.75 19.355469 4.417969 C 19.535156 4.082031 19.835938 4.179688 20.109375 4.328125 C 21.613281 5.152344 22.632812 6.4375 23.457031 7.898438 C 23.746094 8.410156 23.992188 8.949219 24.308594 9.582031 Z M 25.636719 12.148438 C 26.328125 12.382812 26.925781 12.515625 27.542969 12.546875 C 29.375 12.636719 31.035156 12.085938 32.617188 11.210938 C 35.976562 9.359375 37.269531 5.457031 36.496094 2.054688 C 36.417969 1.710938 36.332031 1.640625 36.003906 1.84375 C 35.183594 2.351562 34.304688 2.738281 33.382812 3.03125 C 32.402344 3.347656 31.417969 3.660156 30.457031 4.019531 C 28.863281 4.613281 27.402344 5.414062 26.386719 6.855469 C 25.417969 8.230469 25.027344 9.765625 25.03125 11.464844 C 25.140625 11.421875 25.207031 11.402344 25.265625 11.375 C 28.242188 9.933594 30.914062 8.074219 33.15625 5.621094 C 33.523438 5.21875 33.769531 5.132812 33.972656 5.359375 C 34.296875 5.722656 33.992188 5.96875 33.777344 6.207031 C 32.539062 7.570312 31.148438 8.757812 29.644531 9.8125 C 28.402344 10.683594 27.097656 11.4375 25.636719 12.148438 Z M 5.308594 32.746094 C 5.894531 36.371094 7.207031 39.730469 9.101562 42.859375 C 10.644531 45.402344 12.515625 47.667969 14.816406 49.5625 C 15.046875 49.75 15.304688 49.886719 15.535156 49.597656 C 15.757812 49.316406 15.578125 49.089844 15.351562 48.894531 C 14.886719 48.484375 14.40625 48.085938 13.96875 47.648438 C 9.902344 43.578125 7.320312 38.703125 6.230469 33.046875 C 5.730469 30.449219 5.679688 27.832031 6.367188 25.246094 C 7.011719 22.832031 8.195312 20.792969 10.4375 19.515625 C 10.507812 19.472656 10.574219 19.417969 10.628906 19.355469 C 10.746094 19.21875 10.773438 19.058594 10.683594 18.894531 C 10.597656 18.734375 10.453125 18.667969 10.273438 18.679688 C 10.097656 18.695312 9.960938 18.792969 9.820312 18.875 C 8.386719 19.734375 7.320312 20.933594 6.546875 22.40625 C 5.414062 24.558594 5.035156 26.878906 5.027344 29.28125 C 5.011719 30.445312 5.121094 31.601562 5.308594 32.746094 Z M 12.378906 18.84375 C 12.621094 18.851562 12.769531 18.714844 12.785156 18.472656 C 12.804688 18.226562 12.660156 18.078125 12.421875 18.0625 C 12.179688 18.046875 12.039062 18.183594 12.007812 18.441406 C 12.023438 18.664062 12.128906 18.832031 12.378906 18.84375 Z M 12.378906 18.84375 " fill-opacity="1" fill-rule="nonzero"/></g></g></g></g></svg>